<svg xmlns="http://www.w3.org/2000/svg" version="1.1" xmlns:xlink="http://www.w3.org/1999/xlink" xmlns:svgjs="http://svgjs.dev/svgjs" width="2000" height="1247" viewBox="0 0 2000 1247"><g transform="matrix(1,0,0,1,-1.2121212121211329,0.504858299595071)"><svg viewBox="0 0 396 247" data-background-color="#ffffff" preserveAspectRatio="xMidYMid meet" height="1247" width="2000" xmlns="http://www.w3.org/2000/svg" xmlns:xlink="http://www.w3.org/1999/xlink"><g id="tight-bounds" transform="matrix(1,0,0,1,0.2400000000000091,-0.09999999999999432)"><svg viewBox="0 0 395.52 247.2" height="247.2" width="395.52"><g><svg></svg></g><g><svg viewBox="0 0 395.52 247.2" height="247.2" width="395.52"><g transform="matrix(1,0,0,1,75.54432000000001,106.19879745531657)"><svg viewBox="0 0 244.43135999999996 34.80240508936685" height="34.80240508936685" width="244.43135999999996"><g><svg viewBox="0 0 244.43135999999996 34.80240508936685" height="34.80240508936685" width="244.43135999999996"><g><svg viewBox="0 0 244.43135999999996 34.80240508936685" height="34.80240508936685" width="244.43135999999996"><g><svg viewBox="0 0 244.43135999999996 34.80240508936685" height="34.80240508936685" width="244.43135999999996"><g id="textblocktransform"><svg viewBox="0 0 244.43135999999996 34.80240508936685" height="34.80240508936685" width="244.43135999999996" id="textblock"><g><svg viewBox="0 0 244.43135999999996 34.80240508936685" height="34.80240508936685" width="244.43135999999996"><g transform="matrix(1,0,0,1,0,0)"><svg width="244.43135999999996" viewBox="5.4 -36.5 330.07000000000005 47" height="34.80240508936685" data-palette-color="#ea3c12"><path d="M5.4-33L17.05-33Q20.4-33 22.88-31.78 25.35-30.55 26.75-28.3 28.15-26.05 28.15-22.95L28.15-22.95Q28.15-19.85 26.75-17.6 25.35-15.35 22.88-14.13 20.4-12.9 17.05-12.9L17.05-12.9 9.4-12.9 9.4 0 5.4 0 5.4-33ZM9.4-16.65L16.45-16.65Q20.35-16.65 22.15-18.28 23.95-19.9 23.95-22.95L23.95-22.95Q23.95-26.05 22.15-27.65 20.35-29.25 16.45-29.25L16.45-29.25 9.4-29.25 9.4-16.65ZM39.15 0L35.15 0 35.15-25 38.4-25 38.95-20.9Q40-23.2 42.02-24.35 44.05-25.5 46.95-25.5L46.95-25.5Q47.6-25.5 48.37-25.4 49.15-25.3 49.7-25L49.7-25 49-21.35Q48.45-21.55 47.8-21.65 47.15-21.75 45.95-21.75L45.95-21.75Q44.4-21.75 42.82-20.85 41.25-19.95 40.2-18.13 39.15-16.3 39.15-13.5L39.15-13.5 39.15 0ZM65.9-25.5L65.9-25.5Q69.45-25.5 72.17-23.95 74.9-22.4 76.45-19.48 78-16.55 78-12.5L78-12.5Q78-8.45 76.45-5.53 74.9-2.6 72.17-1.05 69.45 0.5 65.9 0.5L65.9 0.5Q62.4 0.5 59.65-1.05 56.9-2.6 55.35-5.53 53.8-8.45 53.8-12.5L53.8-12.5Q53.8-16.55 55.35-19.48 56.9-22.4 59.65-23.95 62.4-25.5 65.9-25.5ZM65.9-22.05L65.9-22.05Q63.35-22.05 61.55-20.9 59.75-19.75 58.77-17.63 57.8-15.5 57.8-12.5L57.8-12.5Q57.8-9.55 58.77-7.4 59.75-5.25 61.55-4.1 63.35-2.95 65.9-2.95L65.9-2.95Q68.45-2.95 70.25-4.1 72.05-5.25 73.02-7.4 74-9.55 74-12.5L74-12.5Q74-15.5 73.02-17.63 72.05-19.75 70.25-20.9 68.45-22.05 65.9-22.05ZM89.54 0L85.54 0 85.54-25 89.04-25 89.29-21.1Q90.64-23.4 92.82-24.45 94.99-25.5 97.29-25.5L97.29-25.5Q99.94-25.5 102.29-24.3 104.64-23.1 105.89-20.6L105.89-20.6Q106.69-22.3 108.14-23.38 109.59-24.45 111.32-24.98 113.04-25.5 114.59-25.5L114.59-25.5Q116.99-25.5 119.17-24.5 121.34-23.5 122.74-21.4 124.14-19.3 124.14-16L124.14-16 124.14 0 120.14 0 120.14-15.6Q120.14-19 118.44-20.5 116.74-22 114.24-22L114.24-22Q112.29-22 110.59-21.05 108.89-20.1 107.87-18.25 106.84-16.4 106.84-13.7L106.84-13.7 106.84 0 102.84 0 102.84-15.6Q102.84-19 101.14-20.5 99.44-22 96.94-22L96.94-22Q95.29-22 93.57-21.13 91.84-20.25 90.69-18.35 89.54-16.45 89.54-13.35L89.54-13.35 89.54 0ZM137.19 10.5L133.19 10.5 133.19-25 136.69-25 137.04-18.9 136.49-19.6Q137.14-21.35 138.44-22.68 139.74-24 141.59-24.75 143.44-25.5 145.59-25.5L145.59-25.5Q148.64-25.5 151.22-23.95 153.79-22.4 155.34-19.5 156.89-16.6 156.89-12.5L156.89-12.5Q156.89-8.45 155.32-5.53 153.74-2.6 151.14-1.05 148.54 0.5 145.44 0.5L145.44 0.5Q142.34 0.5 140.02-1.03 137.69-2.55 136.69-4.9L136.69-4.9 137.19-5.65 137.19 10.5ZM145.04-3L145.04-3Q148.74-3 150.82-5.6 152.89-8.2 152.89-12.5L152.89-12.5Q152.89-16.8 150.87-19.4 148.84-22 145.19-22L145.19-22Q142.79-22 140.99-20.83 139.19-19.65 138.19-17.53 137.19-15.4 137.19-12.5L137.19-12.5Q137.19-9.65 138.17-7.5 139.14-5.35 140.92-4.17 142.69-3 145.04-3ZM166.44-31L170.44-32.1 170.44-6.9Q170.44-5.05 171.49-4.15 172.54-3.25 174.19-3.25L174.19-3.25Q175.64-3.25 176.69-3.75 177.74-4.25 178.59-5.1L178.59-5.1 179.99-1.75Q178.84-0.7 177.26-0.1 175.69 0.5 173.64 0.5L173.64 0.5Q171.74 0.5 170.09-0.18 168.44-0.85 167.46-2.33 166.49-3.8 166.44-6.2L166.44-6.2 166.44-31ZM161.44-25L179.54-25 179.54-21.55 161.44-21.55 161.44-25ZM213.88-33.5L213.88-33.5Q218.23-33.5 221.38-31.73 224.53-29.95 226.63-26.5L226.63-26.5 223.28-23.9Q221.43-27.1 219.11-28.43 216.78-29.75 213.48-29.75L213.48-29.75Q210.83-29.75 209.11-29 207.38-28.25 206.58-27.03 205.78-25.8 205.78-24.25L205.78-24.25Q205.78-22.5 206.88-21.18 207.98-19.85 211.28-19.1L211.28-19.1 218.43-17.5Q223.18-16.45 225.06-14.33 226.93-12.2 226.93-9.05L226.93-9.05Q226.93-6.25 225.36-4.08 223.78-1.9 220.93-0.7 218.08 0.5 214.23 0.5L214.23 0.5Q210.63 0.5 207.91-0.48 205.18-1.45 203.23-3.1 201.28-4.75 200.03-6.8L200.03-6.8 203.53-9.65Q204.48-7.75 205.98-6.3 207.48-4.85 209.61-4.05 211.73-3.25 214.48-3.25L214.48-3.25Q217.03-3.25 218.91-3.88 220.78-4.5 221.78-5.73 222.78-6.95 222.78-8.7L222.78-8.7Q222.78-10.3 221.73-11.58 220.68-12.85 217.78-13.5L217.78-13.5 210.03-15.25Q206.98-15.95 205.11-17.18 203.23-18.4 202.41-20.08 201.58-21.75 201.58-23.7L201.58-23.7Q201.58-26.35 203.06-28.58 204.53-30.8 207.31-32.15 210.08-33.5 213.88-33.5ZM238.58 0L234.58 0 234.58-36.5 238.58-36.5 238.58-21.25Q239.88-23.5 242.03-24.5 244.18-25.5 246.73-25.5L246.73-25.5Q249.43-25.5 251.63-24.48 253.83-23.45 255.16-21.35 256.48-19.25 256.48-16L256.48-16 256.48 0 252.48 0 252.48-14.6Q252.48-18.75 250.71-20.38 248.93-22 246.33-22L246.33-22Q244.53-22 242.73-21.15 240.93-20.3 239.76-18.38 238.58-16.45 238.58-13.25L238.58-13.25 238.58 0ZM280.13-9.25L280.13-16.15Q280.13-18.95 278.63-20.48 277.13-22 274.38-22L274.38-22Q271.78-22 269.98-20.88 268.18-19.75 267.33-17.25L267.33-17.25 264.08-19.25Q265.08-22.05 267.78-23.78 270.48-25.5 274.48-25.5L274.48-25.5Q277.18-25.5 279.38-24.58 281.58-23.65 282.85-21.78 284.13-19.9 284.13-16.95L284.13-16.95 284.13-4.85Q284.13-3.05 286.03-3.05L286.03-3.05Q286.98-3.05 287.88-3.3L287.88-3.3 287.68-0.15Q286.68 0.35 285.08 0.35L285.08 0.35Q283.63 0.35 282.48-0.2 281.33-0.75 280.68-1.88 280.03-3 280.03-4.7L280.03-4.7 280.03-5.2 281.03-5.05Q280.43-3.1 278.98-1.88 277.53-0.65 275.73-0.08 273.93 0.5 272.18 0.5L272.18 0.5Q269.98 0.5 268.08-0.25 266.18-1 265.05-2.53 263.93-4.05 263.93-6.3L263.93-6.3Q263.93-9.1 265.8-10.93 267.68-12.75 271.03-13.4L271.03-13.4 280.93-15.35 280.93-12.05 272.88-10.4Q270.43-9.9 269.23-9 268.03-8.1 268.03-6.5L268.03-6.5Q268.03-4.95 269.25-3.98 270.48-3 272.73-3L272.73-3Q274.18-3 275.5-3.38 276.83-3.75 277.88-4.53 278.93-5.3 279.53-6.48 280.13-7.65 280.13-9.25L280.13-9.25ZM297.83 0L293.83 0 293.83-25 297.08-25 297.63-20.9Q298.68-23.2 300.7-24.35 302.73-25.5 305.63-25.5L305.63-25.5Q306.28-25.5 307.05-25.4 307.83-25.3 308.38-25L308.38-25 307.68-21.35Q307.13-21.55 306.48-21.65 305.83-21.75 304.63-21.75L304.63-21.75Q303.08-21.75 301.5-20.85 299.93-19.95 298.88-18.13 297.83-16.3 297.83-13.5L297.83-13.5 297.83 0ZM324.67 0.5L324.67 0.5Q321.12 0.5 318.35-1.05 315.57-2.6 314.02-5.53 312.47-8.45 312.47-12.5L312.47-12.5Q312.47-16.55 314.02-19.48 315.57-22.4 318.27-23.95 320.97-25.5 324.42-25.5L324.42-25.5Q327.92-25.5 330.4-24 332.87-22.5 334.17-19.93 335.47-17.35 335.47-14.15L335.47-14.15Q335.47-13.3 335.42-12.6 335.37-11.9 335.27-11.35L335.27-11.35 315.07-11.35 315.07-14.9 333.52-14.9 331.47-14.5Q331.47-18.1 329.5-20.05 327.52-22 324.32-22L324.32-22Q321.87-22 320.1-20.88 318.32-19.75 317.35-17.63 316.37-15.5 316.37-12.5L316.37-12.5Q316.37-9.55 317.37-7.4 318.37-5.25 320.2-4.13 322.02-3 324.57-3L324.57-3Q327.32-3 329.05-4.05 330.77-5.1 331.82-6.9L331.82-6.9 334.97-5.05Q334.02-3.35 332.55-2.1 331.07-0.85 329.1-0.18 327.12 0.5 324.67 0.5Z" opacity="1" transform="matrix(1,0,0,1,0,0)" fill="#ea3c12" class="wordmark-text-0" data-fill-palette-color="primary" id="text-0"></path></svg></g></svg></g></svg></g></svg></g></svg></g></svg></g></svg></g><g><path d="M0 123.6c0-68.262 55.338-123.6 123.6-123.6 60.926 0 111.556 44.082 121.735 102.091l-1.594 0c-10.161-57.138-60.085-100.522-120.141-100.522-67.396 0-122.031 54.635-122.031 122.031 0 67.396 54.635 122.031 122.031 122.031 60.057 0 109.98-43.384 120.141-100.522h1.594c-10.179 58.009-60.809 102.091-121.735 102.091-68.262 0-123.6-55.338-123.6-123.6z" fill="#ea3c12" stroke="transparent" data-fill-palette-color="tertiary"></path></g></svg></g><defs></defs></svg><rect width="395.52" height="247.2" fill="none" stroke="none" visibility="hidden"></rect></g></svg></g></svg>